<?xml version="1.0" encoding="UTF-8"?>
<svg id="Layer_2" data-name="Layer 2" xmlns="http://www.w3.org/2000/svg" viewBox="0 0 1000 1000">
  <defs>
    <style>
      .cls-1 {
        fill: #00b6d3;
      }
    </style>
  </defs>
  <g id="Layer_1-2" data-name="Layer 1">
    <g>
      <path class="cls-1" d="m266.86,960.12v-39.88h-73.61c-62.61,0-113.49-50.88-113.49-113.49v-73.61h-39.88c-14.52,0-28.11-3.91-39.88-10.73v84.34c0,106.55,86.69,193.24,193.24,193.24h84.34c-6.82-11.76-10.73-25.36-10.73-39.88Z"/>
      <path class="cls-1" d="m266.86,960.12v-39.88h-73.61c-62.61,0-113.49-50.88-113.49-113.49v-73.61h-39.88c-14.52,0-28.11-3.91-39.88-10.73v84.34c0,106.55,86.69,193.24,193.24,193.24h84.34c-6.82-11.76-10.73-25.36-10.73-39.88Z"/>
      <path class="cls-1" d="m499.98,0H193.24C86.69,0,0,86.69,0,193.28v460.1c0,22.01,17.82,39.88,39.88,39.88h266.86s0,266.86,0,266.86c0,22.05,17.86,39.88,39.88,39.88h153.37c275.71,0,500.02-224.27,500.02-499.98C1000,224.31,775.69,0,499.98,0Zm0,920.25h-113.49s0-266.86,0-266.86c0-22.01-17.86-39.88-39.88-39.88H79.75s0-420.23,0-420.23c0-62.61,50.88-113.53,113.49-113.53h306.74c231.73,0,420.27,188.54,420.27,420.27,0,231.73-188.54,420.23-420.27,420.23Z"/>
      <path class="cls-1" d="m499.98,306.78h-153.37c-22.01,0-39.88,17.83-39.88,39.88v226.98h39.88c14.52,0,28.11,3.91,39.88,10.73v-197.83s113.49,0,113.49,0c62.57,0,113.49,50.92,113.49,113.49,0,62.57-50.92,113.49-113.49,113.49h-84.34c6.82,11.76,10.73,25.36,10.73,39.88v39.88h73.61c106.55,0,193.24-86.69,193.24-193.24,0-106.55-86.69-193.24-193.24-193.24Z"/>
      <path class="cls-1" d="m499.98,306.78h-153.37c-22.01,0-39.88,17.83-39.88,39.88v226.98h39.88c14.52,0,28.11,3.91,39.88,10.73v-197.83s113.49,0,113.49,0c62.57,0,113.49,50.92,113.49,113.49,0,62.57-50.92,113.49-113.49,113.49h-84.34c6.82,11.76,10.73,25.36,10.73,39.88v39.88h73.61c106.55,0,193.24-86.69,193.24-193.24,0-106.55-86.69-193.24-193.24-193.24Z"/>
    </g>
  </g>
</svg>